/* XPM */
static char * C:\solidus_0_14_2\share\pixmaps\bitcoin16_xpm[] = {
"16 16 164 2",
"  	c None",
". 	c #000001",
"+ 	c #010101",
"@ 	c #010102",
"# 	c #030304",
"$ 	c #040405",
"% 	c #000000",
"& 	c #020309",
"* 	c #201D20",
"= 	c #343033",
"- 	c #282729",
"; 	c #090E10",
"> 	c #04090C",
", 	c #060508",
"' 	c #000002",
") 	c #070916",
"! 	c #504F53",
"~ 	c #A4989A",
"{ 	c #C0B0B1",
"] 	c #ACA3A4",
"^ 	c #4E4C4E",
"/ 	c #555558",
"( 	c #2A272F",
"_ 	c #100C17",
": 	c #030105",
"< 	c #010103",
"[ 	c #111018",
"} 	c #302F34",
"| 	c #8B898F",
"1 	c #AEA2A6",
"2 	c #A7989A",
"3 	c #9E9294",
"4 	c #6D6567",
"5 	c #8F8E90",
"6 	c #8B898D",
"7 	c #3A3143",
"8 	c #150C21",
"9 	c #05030B",
"0 	c #241F32",
"a 	c #847F88",
"b 	c #575762",
"c 	c #767780",
"d 	c #594F56",
"e 	c #5E383F",
"f 	c #4A2B2F",
"g 	c #242629",
"h 	c #24292F",
"i 	c #87898C",
"j 	c #9A8C9A",
"k 	c #332445",
"l 	c #010104",
"m 	c #0E0919",
"n 	c #595464",
"o 	c #959096",
"p 	c #252D3B",
"q 	c #141F28",
"r 	c #191A1E",
"s 	c #21161A",
"t 	c #171114",
"u 	c #0D1B20",
"v 	c #181A1F",
"w 	c #7F7D80",
"x 	c #BEB5BA",
"y 	c #574B59",
"z 	c #05050E",
"A 	c #010001",
"B 	c #0F111A",
"C 	c #5A5E62",
"D 	c #4B4E4F",
"E 	c #132624",
"F 	c #040E0F",
"G 	c #030A0A",
"H 	c #070A0B",
"I 	c #3D2528",
"J 	c #61595B",
"K 	c #848184",
"L 	c #40444A",
"M 	c #02040A",
"N 	c #181F1E",
"O 	c #92908D",
"P 	c #6C675F",
"Q 	c #30382E",
"R 	c #040E0B",
"S 	c #0D080A",
"T 	c #3D3C3C",
"U 	c #696363",
"V 	c #595B5B",
"W 	c #010204",
"X 	c #101712",
"Y 	c #9F9993",
"Z 	c #AD9C90",
"` 	c #585245",
" .	c #281910",
"..	c #020201",
"+.	c #030202",
"@.	c #3D1716",
"#.	c #5B4B4A",
"$.	c #A39E9E",
"%.	c #737171",
"&.	c #010404",
"*.	c #050704",
"=.	c #6F6A65",
"-.	c #C0B2AB",
";.	c #7B6D61",
">.	c #532C21",
",.	c #1C1711",
"'.	c #020605",
").	c #111414",
"!.	c #4C2827",
"~.	c #7F6F6F",
"{.	c #B0ABAA",
"].	c #62605F",
"^.	c #070908",
"/.	c #000100",
"(.	c #2D2C29",
"_.	c #AFA7A3",
":.	c #B0A8A2",
"<.	c #5F524B",
"[.	c #232521",
"}.	c #131D1D",
"|.	c #3D2225",
"1.	c #27252A",
"2.	c #676465",
"3.	c #ADA4A3",
"4.	c #918B8A",
"5.	c #2C3230",
"6.	c #070A09",
"7.	c #030504",
"8.	c #656360",
"9.	c #B8B3B0",
"0.	c #999692",
"a.	c #777777",
"b.	c #3B4149",
"c.	c #2B2735",
"d.	c #64636A",
"e.	c #9A999C",
"f.	c #B6AEAF",
"g.	c #5C5958",
"h.	c #070C0B",
"i.	c #080C0B",
"j.	c #565555",
"k.	c #969595",
"l.	c #7B787C",
"m.	c #96959C",
"n.	c #838589",
"o.	c #61616A",
"p.	c #8B8B93",
"q.	c #545258",
"r.	c #0E1013",
"s.	c #000101",
"t.	c #010306",
"u.	c #17171D",
"v.	c #2C2A39",
"w.	c #61606D",
"x.	c #635F75",
"y.	c #3F365B",
"z.	c #2C2446",
"A.	c #130D1D",
"B.	c #020106",
"C.	c #04020E",
"D.	c #140823",
"E.	c #14071E",
"F.	c #0C0413",
"G.	c #020102",
"  . + @ + + # $ + + + + + + .   ",
"% % % % . & * = - ; > , + % % % ",
"% % % ' ) ! ~ { ] ^ / ( _ : % % ",
"% % < [ } | 1 2 3 4 5 6 7 8 @ % ",
"% 9 0 a b c d e f g h i j k l % ",
"% m n o p q r s t u v w x y z % ",
"A B C D E F G . % H I J K L M % ",
"+ N O P Q R + % % + S T U V W % ",
"% X Y Z `  ...% % +.@.#.$.%.&.% ",
"% *.=.-.;.>.,.'.$ ).!.~.{.].^.% ",
"% /.(._.:.<.[.}.|.1.2.3.4.5.6.% ",
"% % 7.8.9.0.a.b.c.d.e.f.g.h./.% ",
"% % % i.j.k.l.m.n.o.p.q.r.s.% % ",
"% % % % t.u.v.w.x.y.z.A.. % % % ",
"% % % % % % B.C.D.E.F.G.% % % % ",
"  % % % % % % % A A % % % % %   "};
