/* XPM */
static char * C:\solidus_0_14_2\share\pixmaps\bitcoin32_xpm[] = {
"32 32 549 2",
"  	c None",
". 	c #000000",
"+ 	c #000102",
"@ 	c #010103",
"# 	c #010102",
"$ 	c #010101",
"% 	c #030203",
"& 	c #070608",
"* 	c #060608",
"= 	c #070708",
"- 	c #09070C",
"; 	c #0B0C10",
"> 	c #090C10",
", 	c #121317",
"' 	c #040709",
") 	c #010406",
"! 	c #000101",
"~ 	c #000202",
"{ 	c #01030C",
"] 	c #010510",
"^ 	c #04060B",
"/ 	c #221E23",
"( 	c #302B30",
"_ 	c #342F34",
": 	c #28272B",
"< 	c #19191C",
"[ 	c #01070A",
"} 	c #021216",
"| 	c #061116",
"1 	c #02070A",
"2 	c #0C0B0F",
"3 	c #0A080C",
"4 	c #000108",
"5 	c #010211",
"6 	c #020B21",
"7 	c #1A1C27",
"8 	c #61575D",
"9 	c #99888C",
"0 	c #B09DA0",
"a 	c #B7A8AA",
"b 	c #ADA3A5",
"c 	c #8D888A",
"d 	c #504F4F",
"e 	c #21262B",
"f 	c #212930",
"g 	c #1E232B",
"h 	c #16171E",
"i 	c #0E0D15",
"j 	c #110C15",
"k 	c #08040A",
"l 	c #000107",
"m 	c #03081F",
"n 	c #292A2E",
"o 	c #848283",
"p 	c #B6AEB0",
"q 	c #CFC1C2",
"r 	c #D6C5C6",
"s 	c #D1BEBF",
"t 	c #CBBEBF",
"u 	c #B5AFB1",
"v 	c #5D5A5C",
"w 	c #3C3B3E",
"x 	c #787678",
"y 	c #626064",
"z 	c #36313B",
"A 	c #1D1A25",
"B 	c #0E0E1B",
"C 	c #150D1B",
"D 	c #07040C",
"E 	c #00010A",
"F 	c #010107",
"G 	c #3B3B3D",
"H 	c #9A9B9C",
"I 	c #9F9CA1",
"J 	c #B5A8AC",
"K 	c #CDBEC0",
"L 	c #C6BDBE",
"M 	c #A3999B",
"N 	c #766468",
"O 	c #403D40",
"P 	c #A8A6A8",
"Q 	c #C3C1C2",
"R 	c #8A888C",
"S 	c #483F4E",
"T 	c #281F32",
"U 	c #110C19",
"V 	c #190D20",
"W 	c #040207",
"X 	c #03030C",
"Y 	c #101016",
"Z 	c #050510",
"` 	c #36333A",
" .	c #696671",
"..	c #898792",
"+.	c #ACA4AA",
"@.	c #8E7E84",
"#.	c #725E65",
"$.	c #6C545A",
"%.	c #6F5960",
"&.	c #958A8C",
"*.	c #968C8D",
"=.	c #4D4A4B",
"-.	c #2C2E32",
";.	c #858486",
">.	c #C2C1C2",
",.	c #838186",
"'.	c #50425A",
").	c #2E203B",
"!.	c #16102D",
"~.	c #190B1F",
"{.	c #020108",
"].	c #09071D",
"^.	c #3C354B",
"/.	c #77717E",
"(.	c #2A2638",
"_.	c #5A5966",
":.	c #8E8F98",
"<.	c #94959E",
"[.	c #726F77",
"}.	c #594B54",
"|.	c #5D434C",
"1.	c #5D4149",
"2.	c #572C31",
"3.	c #362B2F",
"4.	c #302E32",
"5.	c #151E23",
"6.	c #131C24",
"7.	c #1E2026",
"8.	c #75767A",
"9.	c #B7B8BA",
"0.	c #908A95",
"a.	c #62406C",
"b.	c #312457",
"c.	c #190F28",
"d.	c #000001",
"e.	c #11091B",
"f.	c #130D2A",
"g.	c #2C2342",
"h.	c #928C95",
"i.	c #BBB6BB",
"j.	c #323143",
"k.	c #767A82",
"l.	c #727580",
"m.	c #373A46",
"n.	c #1E2129",
"o.	c #4E3138",
"p.	c #62282E",
"q.	c #62262C",
"r.	c #5E1F25",
"s.	c #180E11",
"t.	c #040D11",
"u.	c #0C151A",
"v.	c #121C23",
"w.	c #161F2A",
"x.	c #323741",
"y.	c #8F9296",
"z.	c #CBC8CB",
"A.	c #9D7990",
"B.	c #432B54",
"C.	c #0D0B23",
"D.	c #030205",
"E.	c #160C20",
"F.	c #141433",
"G.	c #63566F",
"H.	c #BDB4BA",
"I.	c #8E898F",
"J.	c #151E35",
"K.	c #263449",
"L.	c #132333",
"M.	c #06131A",
"N.	c #2B1C20",
"O.	c #2A2226",
"P.	c #261E22",
"Q.	c #271D21",
"R.	c #0D1418",
"S.	c #0E1E24",
"T.	c #051116",
"U.	c #091217",
"V.	c #11181F",
"W.	c #424047",
"X.	c #AEAFB3",
"Y.	c #C0BBBF",
"Z.	c #D0B9C0",
"`.	c #564058",
" +	c #1D1529",
".+	c #010104",
"++	c #0C0610",
"@+	c #100B1E",
"#+	c #242542",
"$+	c #7C7885",
"%+	c #B6B4B6",
"&+	c #41444B",
"*+	c #071524",
"=+	c #081B29",
"-+	c #040E16",
";+	c #06151A",
">+	c #0B1F22",
",+	c #0C1A1D",
"'+	c #010303",
")+	c #020405",
"!+	c #0B161A",
"~+	c #15282D",
"{+	c #0F191E",
"]+	c #151419",
"^+	c #372C32",
"/+	c #9E999C",
"(+	c #B6B6BA",
"_+	c #CAC2C5",
":+	c #7B6C78",
"<+	c #201F36",
"[+	c #0C0C1D",
"}+	c #0E0A13",
"|+	c #0D0D1B",
"1+	c #272D3D",
"2+	c #898C90",
"3+	c #7D7E7F",
"4+	c #152027",
"5+	c #0A1C1F",
"6+	c #091D1F",
"7+	c #02070B",
"8+	c #051516",
"9+	c #051717",
"0+	c #010203",
"a+	c #081012",
"b+	c #383033",
"c+	c #56282C",
"d+	c #3E2528",
"e+	c #81797C",
"f+	c #989599",
"g+	c #828185",
"h+	c #6B6C73",
"i+	c #141D2C",
"j+	c #040813",
"k+	c #0C0B12",
"l+	c #0D141B",
"m+	c #313C3F",
"n+	c #5A5E5F",
"o+	c #2C3030",
"p+	c #0E1A19",
"q+	c #182E29",
"r+	c #192F2B",
"s+	c #030B0B",
"t+	c #020303",
"u+	c #010001",
"v+	c #000100",
"w+	c #251F21",
"x+	c #452326",
"y+	c #271C1F",
"z+	c #726D6F",
"A+	c #8C8788",
"B+	c #656466",
"C+	c #29383F",
"D+	c #071318",
"E+	c #010307",
"F+	c #0C0D12",
"G+	c #0D1C1F",
"H+	c #585D5A",
"I+	c #A3A3A1",
"J+	c #54554F",
"K+	c #33322D",
"L+	c #2A3B30",
"M+	c #1B2F26",
"N+	c #030D0B",
"O+	c #020A09",
"P+	c #010202",
"Q+	c #040507",
"R+	c #040809",
"S+	c #050C0E",
"T+	c #4F4E4F",
"U+	c #585454",
"V+	c #2C2E2E",
"W+	c #62696A",
"X+	c #061012",
"Y+	c #010305",
"Z+	c #0C0F0F",
"`+	c #14241F",
" @	c #696963",
".@	c #D2CAC7",
"+@	c #8A8175",
"@@	c #6F695E",
"#@	c #4A4C3E",
"$@	c #0F1E15",
"%@	c #030F0B",
"&@	c #020C08",
"*@	c #090708",
"=@	c #0C1213",
"-@	c #484949",
";@	c #8B8483",
">@	c #685C5A",
",@	c #949493",
"'@	c #080B0C",
")@	c #010201",
"!@	c #0B1A14",
"~@	c #606159",
"{@	c #D5CBC7",
"]@	c #AC9587",
"^@	c #A79D92",
"/@	c #545343",
"(@	c #102115",
"_@	c #0C170F",
":@	c #020805",
"<@	c #0A0404",
"[@	c #441614",
"}@	c #421D1B",
"|@	c #676160",
"1@	c #9A9796",
"2@	c #928B8A",
"3@	c #979797",
"4@	c #070808",
"5@	c #010505",
"6@	c #06140D",
"7@	c #4E5248",
"8@	c #CBC2BE",
"9@	c #B59A8D",
"0@	c #B0A397",
"a@	c #7C7262",
"b@	c #3D2E20",
"c@	c #4C2A1C",
"d@	c #0E0704",
"e@	c #020302",
"f@	c #020304",
"g@	c #270808",
"h@	c #5F2726",
"i@	c #4D2B29",
"j@	c #5B4D4B",
"k@	c #B7B4B3",
"l@	c #B0AAAA",
"m@	c #A4A09F",
"n@	c #1A1818",
"o@	c #030604",
"p@	c #2F3128",
"q@	c #A7A19C",
"r@	c #C2ACA3",
"s@	c #B9ADA4",
"t@	c #867565",
"u@	c #553D2F",
"v@	c #612E22",
"w@	c #3B1B12",
"x@	c #090E0A",
"y@	c #010302",
"z@	c #110E0F",
"A@	c #452322",
"B@	c #5E2B29",
"C@	c #503433",
"D@	c #7F6F6E",
"E@	c #C2BFBE",
"F@	c #C3BFBE",
"G@	c #959190",
"H@	c #111313",
"I@	c #020404",
"J@	c #050605",
"K@	c #070A05",
"L@	c #1A1D14",
"M@	c #6C665F",
"N@	c #CABEB9",
"O@	c #CCC0BB",
"P@	c #978B80",
"Q@	c #544736",
"R@	c #5A382D",
"S@	c #59281D",
"T@	c #32231A",
"U@	c #101E17",
"V@	c #030B09",
"W@	c #030506",
"X@	c #051515",
"Y@	c #142122",
"Z@	c #432120",
"`@	c #4D2D2C",
" #	c #4E3736",
".#	c #B0A2A1",
"+#	c #AEA6A5",
"@#	c #9C9897",
"##	c #676463",
"$#	c #18201D",
"%#	c #090C0A",
"&#	c #0A0C0A",
"*#	c #040805",
"=#	c #3A3831",
"-#	c #BAB5B1",
";#	c #B9ABA5",
">#	c #C7BFB9",
",#	c #6E675A",
"'#	c #4A3028",
")#	c #522C23",
"!#	c #241914",
"~#	c #0B1D19",
"{#	c #0C2623",
"]#	c #0A1F1E",
"^#	c #202021",
"/#	c #302223",
"(#	c #121A1C",
"_#	c #051114",
":#	c #1B1B1D",
"<#	c #564E4E",
"[#	c #8D8484",
"}#	c #C5BEBE",
"|#	c #817877",
"1#	c #7E7A79",
"2#	c #3B4240",
"3#	c #15211F",
"4#	c #0A0E0D",
"5#	c #010402",
"6#	c #070A06",
"7#	c #76726F",
"8#	c #CFC8C5",
"9#	c #C9BDB8",
"0#	c #BBB3AE",
"a#	c #726B63",
"b#	c #504A43",
"c#	c #222B24",
"d#	c #091515",
"e#	c #081A1A",
"f#	c #1B1518",
"g#	c #502528",
"h#	c #522226",
"i#	c #311E25",
"j#	c #1E272D",
"k#	c #565558",
"l#	c #999798",
"m#	c #A39A9A",
"n#	c #C0B4B3",
"o#	c #C8C1C1",
"p#	c #645F5E",
"q#	c #1E2C29",
"r#	c #111817",
"s#	c #0B0E0D",
"t#	c #010604",
"u#	c #2A2926",
"v#	c #A4A19D",
"w#	c #CCC4C1",
"x#	c #BAB3B0",
"y#	c #A3A29C",
"z#	c #999893",
"A#	c #6C6B68",
"B#	c #363C3E",
"C#	c #091A22",
"D#	c #07111A",
"E#	c #2E2736",
"F#	c #3A3240",
"G#	c #4C4A54",
"H#	c #76777D",
"I#	c #9EA1A4",
"J#	c #999598",
"K#	c #AFA3A4",
"L#	c #D2CACA",
"M#	c #2A2C2B",
"N#	c #0D1614",
"O#	c #020D0A",
"P#	c #40413D",
"Q#	c #A7A4A1",
"R#	c #C6C4C3",
"S#	c #98938F",
"T#	c #8B8380",
"U#	c #989595",
"V#	c #8E8F92",
"W#	c #5B626A",
"X#	c #1C2A3E",
"Y#	c #0B192D",
"Z#	c #111729",
"`#	c #504C54",
" $	c #7C7E82",
".$	c #76767E",
"+$	c #B4B0B3",
"@$	c #D1C9CA",
"#$	c #948F90",
"$$	c #313334",
"%$	c #141919",
"&$	c #000504",
"*$	c #020C0A",
"=$	c #323332",
"-$	c #8A8888",
";$	c #C1C0C0",
">$	c #B8B6B6",
",$	c #8B8689",
"'$	c #71676E",
")$	c #A2A2A6",
"!$	c #818387",
"~$	c #292C38",
"{$	c #2F323D",
"]$	c #2C2F3A",
"^$	c #3C3C45",
"/$	c #96989B",
"($	c #BFC0C3",
"_$	c #7E7D81",
":$	c #302F35",
"<$	c #16181C",
"[$	c #0A0D11",
"}$	c #020E16",
"|$	c #141719",
"1$	c #545455",
"2$	c #7F8081",
"3$	c #8E8E90",
"4$	c #464553",
"5$	c #94929C",
"6$	c #B4B1B8",
"7$	c #B5B7BA",
"8$	c #B0B3B6",
"9$	c #88898D",
"0$	c #61616E",
"a$	c #797886",
"b$	c #5C596D",
"c$	c #302A3D",
"d$	c #14131E",
"e$	c #02040B",
"f$	c #000204",
"g$	c #01040E",
"h$	c #02030B",
"i$	c #181622",
"j$	c #1D1B30",
"k$	c #3A3A4B",
"l$	c #757581",
"m$	c #8C8C98",
"n$	c #8D8B9C",
"o$	c #6C6983",
"p$	c #4F476D",
"q$	c #433465",
"r$	c #3B2D5C",
"s$	c #2A2148",
"t$	c #1A1428",
"u$	c #090713",
"v$	c #000002",
"w$	c #02020D",
"x$	c #0A081B",
"y$	c #150E2A",
"z$	c #1B1130",
"A$	c #211837",
"B$	c #2F1E4B",
"C$	c #2D1B48",
"D$	c #2B1A46",
"E$	c #231848",
"F$	c #191138",
"G$	c #130B25",
"H$	c #160B1C",
"I$	c #08040C",
"J$	c #04020C",
"K$	c #01010E",
"L$	c #030214",
"M$	c #1B0C2F",
"N$	c #140927",
"O$	c #160924",
"P$	c #1C0B24",
"Q$	c #180B20",
"R$	c #100615",
"S$	c #030104",
"T$	c #08020C",
"U$	c #14061A",
"V$	c #110516",
"W$	c #070209",
"X$	c #010002",
"    . + @ @ @ @ @ @ # # # # # $ $ $ $ $ $ # # # # # @ @ + .     ",
"  . . . . . . . . . . . % & * = . . . . . . . . . . . . . . .   ",
". . . . . . . . . . . . - ; > , ' ) ! ~ . . . . . . . . . . . . ",
". . . . . . . . . . { ] ^ / ( _ : < [ } | 1 2 3 # . . . . . . . ",
". . . . . . . . 4 5 6 7 8 9 0 a b c d e f g h i j k . . . . . . ",
". . . . . . . l 5 m n o p q r s t u v w x y z A B C D . . . . . ",
". . . . . . l E F G H I J K q t L M N O P Q R S T U V W . . . . ",
". . . . . 4 X Y Z `  ...+.@.#.$.%.&.*.=.-.;.>.,.'.).!.~.# . . . ",
". . . @ {.].^./.(._.:.<.[.}.|.1.2.3.4.5.6.7.8.9.0.a.b.c.+ . . . ",
". . d.e.f.g.h.i.j.k.l.m.n.o.p.q.r.s.t.u.v.w.x.y.z.A.B.C.+ . . . ",
". . D.E.F.G.H.I.J.K.L.M.| N.O.P.Q.R.S.T.U.V.W.X.Y.Z.`. +.+. . . ",
". . ++@+#+$+%+&+*+=+-+;+>+,+' '+# )+!+~+{+]+^+/+(+_+:+<+[+# . . ",
". . }+|+1+2+3+4+5+6+7+8+9+'+d.. . $ 0+a+b+c+d+e+f+g+h+i+j+d.. . ",
". . k+l+m+n+o+p+q+r+s+t+)+u+. . . . v+)+w+x+y+z+A+B+C+D+E+d.. . ",
". $ F+G+H+I+J+K+L+M+N+O+P+. . . . . . # Q+R+S+T+U+V+W+X+Y++ . . ",
". $ Z+`+ @.@+@@@#@$@%@&@P+. . . . . . $ )+*@=@-@;@>@,@'@Y++ . . ",
". . )@!@~@{@]@^@/@(@_@:@)@. . . . . . $ <@[@}@|@1@2@3@4@5@! . . ",
". . . 6@7@8@9@0@a@b@c@d@e@$ . . . . d.f@g@h@i@j@k@l@m@n@5@! . . ",
". . . o@p@q@r@s@t@u@v@w@x@y@. . . . 0+z@A@B@C@D@E@F@G@H@I@J@. . ",
". . . K@L@M@N@O@P@Q@R@S@T@U@V@'+0+W@X@Y@Z@`@ #.#+#@###$#%#&#. . ",
". . . v+*#=#-#;#>#,#'#)#!#~#{#]#^#/#(#_#:#<#[#}#|#1#2#3#4#J@. . ",
". . . . 5#6#7#8#9#0#a#b#c#d#e#f#g#h#i#j#k#l#m#n#o#p#q#r#s#! . . ",
". . . . ! t#u#v#w#x#y#z#A#B#C#D#E#F#G#H#I#J#K#L#2@M#N#'+v+. . . ",
". . . . . ~ O#P#Q#R#S#T#U#V#W#X#Y#Z#`# $.$+$@$#$$$%$5@. . . . . ",
". . . . . . &$*$=$-$;$>$,$'$)$!$~${$]$^$/$($_$:$<$[$! . . . . . ",
". . . . . . . ~ }$|$1$2$3$4$5$6$7$8$9$0$a$b$c$d$e$. . . . . . . ",
". . . . . . . . f$g$h$i$j$k$l$m$n$o$p$q$r$s$t$u$. . . . . . . . ",
". . . . . . . . . d.v$w$x$y$z$A$B$C$D$E$F$G$H$I$. . . . . . . . ",
". . . . . . . . . . . . @ J$K$L$M$N$O$P$Q$R$S$. . . . . . . . . ",
". . . . . . . . . . . . . . . . T$U$V$W$X$. . . . . . . . . . . ",
"  . . . . . . . . . . . . . . . . . . . . . . . . . . . . . .   ",
"    . . . . . . . . . . . . . . . . . . . . . . . . . . . .     "};
